<svg 
          width="24" 
          height="24" fill="none" 
          xmlns="http://www.w3.org/2000/svg">
          <path d="M 12.520632934570314 0.19259469509124758 C 12.221041107177735 -0.06419823169708253 11.778958892822267 -0.06419823169708253 11.479367065429688 0.19259469509124758 L 0 10.032051849365235 L 0 21.6 C 0 22.92548370361328 1.0745166778564457 24 2.4000000000000004 24 L 8.8 24 C 9.24182815551758 24 9.600000000000001 23.64182739257813 9.600000000000001 23.200000000000003 L 9.600000000000001 18.400000000000002 C 9.600000000000001 17.074516296386722 10.674517059326172 16 12 16 C 13.325482177734376 16 14.4 17.074516296386722 14.4 18.400000000000002 L 14.4 23.200000000000003 C 14.4 23.64182739257813 14.758172607421876 24 15.200000000000001 24 L 21.6 24 C 22.92548370361328 24 24 22.92548370361328 24 21.6 L 24 10.032051849365235 L 12.520632934570314 0.19259469509124758 Z" fill="rgb(28.000000230968,107.00000122189522,164.00000542402267)"/>
        </svg>