<svg 
          width="19.69230842590332" 
          height="24" fill="none" 
          xmlns="http://www.w3.org/2000/svg">
          <path d="M 9.84615421295166 24 C 11.20000044657634 24 12.307692766189575 22.89230772165152 12.307692766189575 21.53846153846154 L 7.384615659713745 21.53846153846154 C 7.384615659713745 22.89230772165152 8.480000298298322 24 9.84615421295166 24 Z M 17.230769872665405 16.615384615384617 L 17.230769872665405 10.461538461538462 C 17.230769872665405 6.6830770052396336 15.21230812989748 3.519999797527607 11.692308127880096 2.6830767118013825 L 11.692308127880096 1.8461538461538463 C 11.692308127880096 0.8246154051560624 10.867692692004717 0 9.84615421295166 0 C 8.824615733898604 0 8.000000298023224 0.8246154051560624 8.000000298023224 1.8461538461538463 L 8.000000298023224 2.6830767118013825 C 4.467692614977182 3.519999797527607 2.461538553237915 6.670769324669472 2.461538553237915 10.461538461538462 L 2.461538553237915 16.615384615384617 L 0 19.076923076923077 L 0 20.30769230769231 L 19.69230842590332 20.30769230769231 L 19.69230842590332 19.076923076923077 L 17.230769872665405 16.615384615384617 Z" fill="rgb(123.0000002682209,141.0000067949295,158.00000578165054)"/>
        </svg>